<?xml version="1.0" encoding="UTF-8" standalone="no"?>
<!DOCTYPE svg PUBLIC "-//W3C//DTD SVG 1.1//EN"
 "http://www.w3.org/Graphics/SVG/1.1/DTD/svg11.dtd">
<!-- Generated by graphviz version 2.50.0 (0)
 -->
<!-- Pages: 1 -->
<svg width="2948pt" height="239pt"
 viewBox="0.00 0.00 2948.00 239.00" xmlns="http://www.w3.org/2000/svg" xmlns:xlink="http://www.w3.org/1999/xlink">
<g id="graph0" class="graph" transform="scale(1 1) rotate(0) translate(4 235)">
<polygon fill="white" stroke="transparent" points="-4,4 -4,-235 2944,-235 2944,4 -4,4"/>
<!-- 4830993264 -->
<g id="node1" class="node">
<title>4830993264</title>
<polygon fill="none" stroke="black" points="2,-194.5 2,-230.5 198,-230.5 198,-194.5 2,-194.5"/>
<text text-anchor="middle" x="17" y="-208.8" font-family="Times,serif" font-size="14.00">x1</text>
<polyline fill="none" stroke="black" points="32,-194.5 32,-230.5 "/>
<text text-anchor="middle" x="72" y="-208.8" font-family="Times,serif" font-size="14.00">data 2.0000</text>
<polyline fill="none" stroke="black" points="112,-194.5 112,-230.5 "/>
<text text-anchor="middle" x="155" y="-208.8" font-family="Times,serif" font-size="14.00">grad &#45;1.5000</text>
</g>
<!-- 4828886160* -->
<g id="node6" class="node">
<title>4828886160*</title>
<ellipse fill="none" stroke="black" cx="263" cy="-157.5" rx="27" ry="18"/>
<text text-anchor="middle" x="263" y="-153.8" font-family="Times,serif" font-size="14.00">*</text>
</g>
<!-- 4830993264&#45;&gt;4828886160* -->
<g id="edge26" class="edge">
<title>4830993264&#45;&gt;4828886160*</title>
<path fill="none" stroke="black" d="M172.53,-194.44C181.84,-191.67 191.2,-188.67 200,-185.5 210.53,-181.71 221.75,-176.9 231.72,-172.33"/>
<polygon fill="black" stroke="black" points="233.25,-175.48 240.82,-168.07 230.28,-169.14 233.25,-175.48"/>
</g>
<!-- 4830999984 -->
<g id="node2" class="node">
<title>4830999984</title>
<polygon fill="none" stroke="black" points="2.5,-84.5 2.5,-120.5 197.5,-120.5 197.5,-84.5 2.5,-84.5"/>
<text text-anchor="middle" x="19" y="-98.8" font-family="Times,serif" font-size="14.00">w2</text>
<polyline fill="none" stroke="black" points="35.5,-84.5 35.5,-120.5 "/>
<text text-anchor="middle" x="75.5" y="-98.8" font-family="Times,serif" font-size="14.00">data 1.0000</text>
<polyline fill="none" stroke="black" points="115.5,-84.5 115.5,-120.5 "/>
<text text-anchor="middle" x="156.5" y="-98.8" font-family="Times,serif" font-size="14.00">grad 0.0000</text>
</g>
<!-- 4830997152* -->
<g id="node8" class="node">
<title>4830997152*</title>
<ellipse fill="none" stroke="black" cx="263" cy="-102.5" rx="27" ry="18"/>
<text text-anchor="middle" x="263" y="-98.8" font-family="Times,serif" font-size="14.00">*</text>
</g>
<!-- 4830999984&#45;&gt;4830997152* -->
<g id="edge19" class="edge">
<title>4830999984&#45;&gt;4830997152*</title>
<path fill="none" stroke="black" d="M197.91,-102.5C207.65,-102.5 217.05,-102.5 225.52,-102.5"/>
<polygon fill="black" stroke="black" points="225.7,-106 235.7,-102.5 225.7,-99 225.7,-106"/>
</g>
<!-- 4830994800 -->
<g id="node3" class="node">
<title>4830994800</title>
<polygon fill="none" stroke="black" points="2232,-82.5 2232,-118.5 2414,-118.5 2414,-82.5 2232,-82.5"/>
<text text-anchor="middle" x="2242" y="-96.8" font-family="Times,serif" font-size="14.00"> </text>
<polyline fill="none" stroke="black" points="2252,-82.5 2252,-118.5 "/>
<text text-anchor="middle" x="2292" y="-96.8" font-family="Times,serif" font-size="14.00">data 4.8284</text>
<polyline fill="none" stroke="black" points="2332,-82.5 2332,-118.5 "/>
<text text-anchor="middle" x="2373" y="-96.8" font-family="Times,serif" font-size="14.00">grad 0.1464</text>
</g>
<!-- 4830993840* -->
<g id="node21" class="node">
<title>4830993840*</title>
<ellipse fill="none" stroke="black" cx="2695" cy="-72.5" rx="27" ry="18"/>
<text text-anchor="middle" x="2695" y="-68.8" font-family="Times,serif" font-size="14.00">*</text>
</g>
<!-- 4830994800&#45;&gt;4830993840* -->
<g id="edge25" class="edge">
<title>4830994800&#45;&gt;4830993840*</title>
<path fill="none" stroke="black" d="M2414.31,-93.9C2475.7,-89.37 2558.76,-83.19 2632,-77.5 2640.42,-76.85 2649.48,-76.13 2658.01,-75.44"/>
<polygon fill="black" stroke="black" points="2658.37,-78.92 2668.06,-74.63 2657.81,-71.94 2658.37,-78.92"/>
</g>
<!-- 4830994800+ -->
<g id="node4" class="node">
<title>4830994800+</title>
<ellipse fill="none" stroke="black" cx="1947" cy="-100.5" rx="27" ry="18"/>
<text text-anchor="middle" x="1947" y="-96.8" font-family="Times,serif" font-size="14.00">+</text>
</g>
<!-- 4830994800+&#45;&gt;4830994800 -->
<g id="edge1" class="edge">
<title>4830994800+&#45;&gt;4830994800</title>
<path fill="none" stroke="black" d="M1974,-100.5C2024.46,-100.5 2138.06,-100.5 2221.81,-100.5"/>
<polygon fill="black" stroke="black" points="2221.87,-104 2231.87,-100.5 2221.87,-97 2221.87,-104"/>
</g>
<!-- 4828886160 -->
<g id="node5" class="node">
<title>4828886160</title>
<polygon fill="none" stroke="black" points="326,-139.5 326,-175.5 546,-175.5 546,-139.5 326,-139.5"/>
<text text-anchor="middle" x="352.5" y="-153.8" font-family="Times,serif" font-size="14.00">x1*w1</text>
<polyline fill="none" stroke="black" points="379,-139.5 379,-175.5 "/>
<text text-anchor="middle" x="421.5" y="-153.8" font-family="Times,serif" font-size="14.00">data &#45;6.0000</text>
<polyline fill="none" stroke="black" points="464,-139.5 464,-175.5 "/>
<text text-anchor="middle" x="505" y="-153.8" font-family="Times,serif" font-size="14.00">grad 0.5000</text>
</g>
<!-- 4830988752+ -->
<g id="node25" class="node">
<title>4830988752+</title>
<ellipse fill="none" stroke="black" cx="609" cy="-129.5" rx="27" ry="18"/>
<text text-anchor="middle" x="609" y="-125.8" font-family="Times,serif" font-size="14.00">+</text>
</g>
<!-- 4828886160&#45;&gt;4830988752+ -->
<g id="edge11" class="edge">
<title>4828886160&#45;&gt;4830988752+</title>
<path fill="none" stroke="black" d="M546.27,-139.61C555.64,-138.07 564.6,-136.61 572.65,-135.29"/>
<polygon fill="black" stroke="black" points="573.35,-138.72 582.65,-133.65 572.22,-131.81 573.35,-138.72"/>
</g>
<!-- 4828886160*&#45;&gt;4828886160 -->
<g id="edge2" class="edge">
<title>4828886160*&#45;&gt;4828886160</title>
<path fill="none" stroke="black" d="M290.34,-157.5C297.77,-157.5 306.37,-157.5 315.6,-157.5"/>
<polygon fill="black" stroke="black" points="315.84,-161 325.84,-157.5 315.84,-154 315.84,-161"/>
</g>
<!-- 4830997152 -->
<g id="node7" class="node">
<title>4830997152</title>
<polygon fill="none" stroke="black" points="328.5,-84.5 328.5,-120.5 543.5,-120.5 543.5,-84.5 328.5,-84.5"/>
<text text-anchor="middle" x="355" y="-98.8" font-family="Times,serif" font-size="14.00">x2*w2</text>
<polyline fill="none" stroke="black" points="381.5,-84.5 381.5,-120.5 "/>
<text text-anchor="middle" x="421.5" y="-98.8" font-family="Times,serif" font-size="14.00">data 0.0000</text>
<polyline fill="none" stroke="black" points="461.5,-84.5 461.5,-120.5 "/>
<text text-anchor="middle" x="502.5" y="-98.8" font-family="Times,serif" font-size="14.00">grad 0.5000</text>
</g>
<!-- 4830997152&#45;&gt;4830988752+ -->
<g id="edge23" class="edge">
<title>4830997152&#45;&gt;4830988752+</title>
<path fill="none" stroke="black" d="M543.84,-119.37C554.01,-120.98 563.76,-122.51 572.44,-123.89"/>
<polygon fill="black" stroke="black" points="572.05,-127.37 582.47,-125.47 573.14,-120.45 572.05,-127.37"/>
</g>
<!-- 4830997152*&#45;&gt;4830997152 -->
<g id="edge3" class="edge">
<title>4830997152*&#45;&gt;4830997152</title>
<path fill="none" stroke="black" d="M290.34,-102.5C298.51,-102.5 308.08,-102.5 318.36,-102.5"/>
<polygon fill="black" stroke="black" points="318.39,-106 328.39,-102.5 318.39,-99 318.39,-106"/>
</g>
<!-- 4830987696 -->
<g id="node9" class="node">
<title>4830987696</title>
<polygon fill="none" stroke="black" points="4,-29.5 4,-65.5 196,-65.5 196,-29.5 4,-29.5"/>
<text text-anchor="middle" x="19" y="-43.8" font-family="Times,serif" font-size="14.00">x2</text>
<polyline fill="none" stroke="black" points="34,-29.5 34,-65.5 "/>
<text text-anchor="middle" x="74" y="-43.8" font-family="Times,serif" font-size="14.00">data 0.0000</text>
<polyline fill="none" stroke="black" points="114,-29.5 114,-65.5 "/>
<text text-anchor="middle" x="155" y="-43.8" font-family="Times,serif" font-size="14.00">grad 0.5000</text>
</g>
<!-- 4830987696&#45;&gt;4830997152* -->
<g id="edge20" class="edge">
<title>4830987696&#45;&gt;4830997152*</title>
<path fill="none" stroke="black" d="M169.28,-65.5C179.65,-68.61 190.16,-71.98 200,-75.5 210.28,-79.17 221.28,-83.74 231.11,-88.07"/>
<polygon fill="black" stroke="black" points="229.93,-91.37 240.48,-92.27 232.79,-84.99 229.93,-91.37"/>
</g>
<!-- 4830997776 -->
<g id="node10" class="node">
<title>4830997776</title>
<polygon fill="none" stroke="black" points="2450,-31.5 2450,-67.5 2632,-67.5 2632,-31.5 2450,-31.5"/>
<text text-anchor="middle" x="2460" y="-45.8" font-family="Times,serif" font-size="14.00"> </text>
<polyline fill="none" stroke="black" points="2470,-31.5 2470,-67.5 "/>
<text text-anchor="middle" x="2510" y="-45.8" font-family="Times,serif" font-size="14.00">data 0.1464</text>
<polyline fill="none" stroke="black" points="2550,-31.5 2550,-67.5 "/>
<text text-anchor="middle" x="2591" y="-45.8" font-family="Times,serif" font-size="14.00">grad 4.8284</text>
</g>
<!-- 4830997776&#45;&gt;4830993840* -->
<g id="edge27" class="edge">
<title>4830997776&#45;&gt;4830993840*</title>
<path fill="none" stroke="black" d="M2632.18,-63.15C2641.42,-64.54 2650.38,-65.9 2658.47,-67.12"/>
<polygon fill="black" stroke="black" points="2658.15,-70.61 2668.56,-68.65 2659.19,-63.69 2658.15,-70.61"/>
</g>
<!-- 4830997776**&#45;1 -->
<g id="node11" class="node">
<title>4830997776**&#45;1</title>
<ellipse fill="none" stroke="black" cx="2323" cy="-45.5" rx="27" ry="18"/>
<text text-anchor="middle" x="2323" y="-41.8" font-family="Times,serif" font-size="14.00">**&#45;1</text>
</g>
<!-- 4830997776**&#45;1&#45;&gt;4830997776 -->
<g id="edge4" class="edge">
<title>4830997776**&#45;1&#45;&gt;4830997776</title>
<path fill="none" stroke="black" d="M2350.05,-45.98C2372.53,-46.4 2406.48,-47.03 2439.5,-47.64"/>
<polygon fill="black" stroke="black" points="2439.64,-51.14 2449.7,-47.83 2439.77,-44.14 2439.64,-51.14"/>
</g>
<!-- 4830992160 -->
<g id="node12" class="node">
<title>4830992160</title>
<polygon fill="none" stroke="black" points="1071,-83.5 1071,-119.5 1263,-119.5 1263,-83.5 1071,-83.5"/>
<text text-anchor="middle" x="1086" y="-97.8" font-family="Times,serif" font-size="14.00">nn</text>
<polyline fill="none" stroke="black" points="1101,-83.5 1101,-119.5 "/>
<text text-anchor="middle" x="1141" y="-97.8" font-family="Times,serif" font-size="14.00">data 0.8814</text>
<polyline fill="none" stroke="black" points="1181,-83.5 1181,-119.5 "/>
<text text-anchor="middle" x="1222" y="-97.8" font-family="Times,serif" font-size="14.00">grad 0.5000</text>
</g>
<!-- 4830992880* -->
<g id="node28" class="node">
<title>4830992880*</title>
<ellipse fill="none" stroke="black" cx="1326" cy="-73.5" rx="27" ry="18"/>
<text text-anchor="middle" x="1326" y="-69.8" font-family="Times,serif" font-size="14.00">*</text>
</g>
<!-- 4830992160&#45;&gt;4830992880* -->
<g id="edge15" class="edge">
<title>4830992160&#45;&gt;4830992880*</title>
<path fill="none" stroke="black" d="M1263.4,-84.49C1272.69,-82.83 1281.64,-81.23 1289.71,-79.79"/>
<polygon fill="black" stroke="black" points="1290.53,-83.2 1299.76,-78 1289.31,-76.31 1290.53,-83.2"/>
</g>
<!-- 4830992160+ -->
<g id="node13" class="node">
<title>4830992160+</title>
<ellipse fill="none" stroke="black" cx="1008" cy="-101.5" rx="27" ry="18"/>
<text text-anchor="middle" x="1008" y="-97.8" font-family="Times,serif" font-size="14.00">+</text>
</g>
<!-- 4830992160+&#45;&gt;4830992160 -->
<g id="edge5" class="edge">
<title>4830992160+&#45;&gt;4830992160</title>
<path fill="none" stroke="black" d="M1035.28,-101.5C1042.78,-101.5 1051.44,-101.5 1060.67,-101.5"/>
<polygon fill="black" stroke="black" points="1060.87,-105 1070.87,-101.5 1060.87,-98 1060.87,-105"/>
</g>
<!-- 4828884816 -->
<g id="node14" class="node">
<title>4828884816</title>
<polygon fill="none" stroke="black" points="716,-56.5 716,-92.5 901,-92.5 901,-56.5 716,-56.5"/>
<text text-anchor="middle" x="727.5" y="-70.8" font-family="Times,serif" font-size="14.00">b</text>
<polyline fill="none" stroke="black" points="739,-56.5 739,-92.5 "/>
<text text-anchor="middle" x="779" y="-70.8" font-family="Times,serif" font-size="14.00">data 6.8814</text>
<polyline fill="none" stroke="black" points="819,-56.5 819,-92.5 "/>
<text text-anchor="middle" x="860" y="-70.8" font-family="Times,serif" font-size="14.00">grad 0.5000</text>
</g>
<!-- 4828884816&#45;&gt;4830992160+ -->
<g id="edge22" class="edge">
<title>4828884816&#45;&gt;4830992160+</title>
<path fill="none" stroke="black" d="M901.02,-87.01C926,-90.43 951.59,-93.93 971.37,-96.63"/>
<polygon fill="black" stroke="black" points="971.05,-100.12 981.43,-98.01 972,-93.18 971.05,-100.12"/>
</g>
<!-- 4830988128 -->
<g id="node15" class="node">
<title>4830988128</title>
<polygon fill="none" stroke="black" points="1697,-110.5 1697,-146.5 1884,-146.5 1884,-110.5 1697,-110.5"/>
<text text-anchor="middle" x="1707" y="-124.8" font-family="Times,serif" font-size="14.00"> </text>
<polyline fill="none" stroke="black" points="1717,-110.5 1717,-146.5 "/>
<text text-anchor="middle" x="1759.5" y="-124.8" font-family="Times,serif" font-size="14.00">data &#45;1.0000</text>
<polyline fill="none" stroke="black" points="1802,-110.5 1802,-146.5 "/>
<text text-anchor="middle" x="1843" y="-124.8" font-family="Times,serif" font-size="14.00">grad 0.1464</text>
</g>
<!-- 4830988128&#45;&gt;4830994800+ -->
<g id="edge12" class="edge">
<title>4830988128&#45;&gt;4830994800+</title>
<path fill="none" stroke="black" d="M1884.05,-111.73C1893.54,-110.01 1902.71,-108.35 1910.95,-106.85"/>
<polygon fill="black" stroke="black" points="1911.64,-110.28 1920.85,-105.06 1910.39,-103.4 1911.64,-110.28"/>
</g>
<!-- 4830999408 -->
<g id="node16" class="node">
<title>4830999408</title>
<polygon fill="none" stroke="black" points="1699.5,-55.5 1699.5,-91.5 1881.5,-91.5 1881.5,-55.5 1699.5,-55.5"/>
<text text-anchor="middle" x="1709.5" y="-69.8" font-family="Times,serif" font-size="14.00"> </text>
<polyline fill="none" stroke="black" points="1719.5,-55.5 1719.5,-91.5 "/>
<text text-anchor="middle" x="1759.5" y="-69.8" font-family="Times,serif" font-size="14.00">data 5.8284</text>
<polyline fill="none" stroke="black" points="1799.5,-55.5 1799.5,-91.5 "/>
<text text-anchor="middle" x="1840.5" y="-69.8" font-family="Times,serif" font-size="14.00">grad 0.0429</text>
</g>
<!-- 4830999408&#45;&gt;4830994800+ -->
<g id="edge28" class="edge">
<title>4830999408&#45;&gt;4830994800+</title>
<path fill="none" stroke="black" d="M1881.82,-89.28C1892.07,-91.08 1902.01,-92.81 1910.88,-94.36"/>
<polygon fill="black" stroke="black" points="1910.3,-97.81 1920.75,-96.09 1911.5,-90.92 1910.3,-97.81"/>
</g>
<!-- 4830994368+ -->
<g id="node23" class="node">
<title>4830994368+</title>
<ellipse fill="none" stroke="black" cx="1947" cy="-45.5" rx="27" ry="18"/>
<text text-anchor="middle" x="1947" y="-41.8" font-family="Times,serif" font-size="14.00">+</text>
</g>
<!-- 4830999408&#45;&gt;4830994368+ -->
<g id="edge16" class="edge">
<title>4830999408&#45;&gt;4830994368+</title>
<path fill="none" stroke="black" d="M1881.82,-57.13C1892.07,-55.27 1902.01,-53.47 1910.88,-51.87"/>
<polygon fill="black" stroke="black" points="1911.54,-55.3 1920.75,-50.08 1910.29,-48.42 1911.54,-55.3"/>
</g>
<!-- 4830999408exp -->
<g id="node17" class="node">
<title>4830999408exp</title>
<ellipse fill="none" stroke="black" cx="1634" cy="-73.5" rx="27" ry="18"/>
<text text-anchor="middle" x="1634" y="-69.8" font-family="Times,serif" font-size="14.00">exp</text>
</g>
<!-- 4830999408exp&#45;&gt;4830999408 -->
<g id="edge6" class="edge">
<title>4830999408exp&#45;&gt;4830999408</title>
<path fill="none" stroke="black" d="M1661.21,-73.5C1669.34,-73.5 1678.85,-73.5 1688.94,-73.5"/>
<polygon fill="black" stroke="black" points="1689.19,-77 1699.19,-73.5 1689.19,-70 1689.19,-77"/>
</g>
<!-- 4830999936 -->
<g id="node18" class="node">
<title>4830999936</title>
<polygon fill="none" stroke="black" points="0,-139.5 0,-175.5 200,-175.5 200,-139.5 0,-139.5"/>
<text text-anchor="middle" x="16.5" y="-153.8" font-family="Times,serif" font-size="14.00">w1</text>
<polyline fill="none" stroke="black" points="33,-139.5 33,-175.5 "/>
<text text-anchor="middle" x="75.5" y="-153.8" font-family="Times,serif" font-size="14.00">data &#45;3.0000</text>
<polyline fill="none" stroke="black" points="118,-139.5 118,-175.5 "/>
<text text-anchor="middle" x="159" y="-153.8" font-family="Times,serif" font-size="14.00">grad 1.0000</text>
</g>
<!-- 4830999936&#45;&gt;4828886160* -->
<g id="edge24" class="edge">
<title>4830999936&#45;&gt;4828886160*</title>
<path fill="none" stroke="black" d="M200.21,-157.5C209.2,-157.5 217.86,-157.5 225.7,-157.5"/>
<polygon fill="black" stroke="black" points="225.85,-161 235.85,-157.5 225.85,-154 225.85,-161"/>
</g>
<!-- 4830992784 -->
<g id="node19" class="node">
<title>4830992784</title>
<polygon fill="none" stroke="black" points="1076,-28.5 1076,-64.5 1258,-64.5 1258,-28.5 1076,-28.5"/>
<text text-anchor="middle" x="1086" y="-42.8" font-family="Times,serif" font-size="14.00"> </text>
<polyline fill="none" stroke="black" points="1096,-28.5 1096,-64.5 "/>
<text text-anchor="middle" x="1136" y="-42.8" font-family="Times,serif" font-size="14.00">data 2.0000</text>
<polyline fill="none" stroke="black" points="1176,-28.5 1176,-64.5 "/>
<text text-anchor="middle" x="1217" y="-42.8" font-family="Times,serif" font-size="14.00">grad 0.2203</text>
</g>
<!-- 4830992784&#45;&gt;4830992880* -->
<g id="edge17" class="edge">
<title>4830992784&#45;&gt;4830992880*</title>
<path fill="none" stroke="black" d="M1258.42,-62.05C1269.41,-63.94 1280.09,-65.78 1289.55,-67.4"/>
<polygon fill="black" stroke="black" points="1289.23,-70.9 1299.68,-69.15 1290.42,-64 1289.23,-70.9"/>
</g>
<!-- 4830993840 -->
<g id="node20" class="node">
<title>4830993840</title>
<polygon fill="none" stroke="black" points="2758,-54.5 2758,-90.5 2940,-90.5 2940,-54.5 2758,-54.5"/>
<text text-anchor="middle" x="2768" y="-68.8" font-family="Times,serif" font-size="14.00"> </text>
<polyline fill="none" stroke="black" points="2778,-54.5 2778,-90.5 "/>
<text text-anchor="middle" x="2818" y="-68.8" font-family="Times,serif" font-size="14.00">data 0.7071</text>
<polyline fill="none" stroke="black" points="2858,-54.5 2858,-90.5 "/>
<text text-anchor="middle" x="2899" y="-68.8" font-family="Times,serif" font-size="14.00">grad 1.0000</text>
</g>
<!-- 4830993840*&#45;&gt;4830993840 -->
<g id="edge7" class="edge">
<title>4830993840*&#45;&gt;4830993840</title>
<path fill="none" stroke="black" d="M2722.13,-72.5C2729.67,-72.5 2738.39,-72.5 2747.64,-72.5"/>
<polygon fill="black" stroke="black" points="2747.87,-76 2757.87,-72.5 2747.87,-69 2747.87,-76"/>
</g>
<!-- 4830994368 -->
<g id="node22" class="node">
<title>4830994368</title>
<polygon fill="none" stroke="black" points="2010,-27.5 2010,-63.5 2196,-63.5 2196,-27.5 2010,-27.5"/>
<text text-anchor="middle" x="2020" y="-41.8" font-family="Times,serif" font-size="14.00"> </text>
<polyline fill="none" stroke="black" points="2030,-27.5 2030,-63.5 "/>
<text text-anchor="middle" x="2070" y="-41.8" font-family="Times,serif" font-size="14.00">data 6.8284</text>
<polyline fill="none" stroke="black" points="2110,-27.5 2110,-63.5 "/>
<text text-anchor="middle" x="2153" y="-41.8" font-family="Times,serif" font-size="14.00">grad &#45;0.1036</text>
</g>
<!-- 4830994368&#45;&gt;4830997776**&#45;1 -->
<g id="edge14" class="edge">
<title>4830994368&#45;&gt;4830997776**&#45;1</title>
<path fill="none" stroke="black" d="M2196.14,-45.5C2227.72,-45.5 2261.24,-45.5 2285.74,-45.5"/>
<polygon fill="black" stroke="black" points="2285.98,-49 2295.98,-45.5 2285.98,-42 2285.98,-49"/>
</g>
<!-- 4830994368+&#45;&gt;4830994368 -->
<g id="edge8" class="edge">
<title>4830994368+&#45;&gt;4830994368</title>
<path fill="none" stroke="black" d="M1974.12,-45.5C1981.62,-45.5 1990.29,-45.5 1999.5,-45.5"/>
<polygon fill="black" stroke="black" points="1999.69,-49 2009.69,-45.5 1999.69,-42 1999.69,-49"/>
</g>
<!-- 4830988752 -->
<g id="node24" class="node">
<title>4830988752</title>
<polygon fill="none" stroke="black" points="672,-111.5 672,-147.5 945,-147.5 945,-111.5 672,-111.5"/>
<text text-anchor="middle" x="725" y="-125.8" font-family="Times,serif" font-size="14.00">x1*w1 + x2*w2</text>
<polyline fill="none" stroke="black" points="778,-111.5 778,-147.5 "/>
<text text-anchor="middle" x="820.5" y="-125.8" font-family="Times,serif" font-size="14.00">data &#45;6.0000</text>
<polyline fill="none" stroke="black" points="863,-111.5 863,-147.5 "/>
<text text-anchor="middle" x="904" y="-125.8" font-family="Times,serif" font-size="14.00">grad 0.5000</text>
</g>
<!-- 4830988752&#45;&gt;4830992160+ -->
<g id="edge18" class="edge">
<title>4830988752&#45;&gt;4830992160+</title>
<path fill="none" stroke="black" d="M936.53,-111.49C949.09,-109.71 960.99,-108.02 971.3,-106.56"/>
<polygon fill="black" stroke="black" points="972.03,-109.99 981.44,-105.12 971.05,-103.06 972.03,-109.99"/>
</g>
<!-- 4830988752+&#45;&gt;4830988752 -->
<g id="edge9" class="edge">
<title>4830988752+&#45;&gt;4830988752</title>
<path fill="none" stroke="black" d="M636.23,-129.5C643.7,-129.5 652.41,-129.5 661.87,-129.5"/>
<polygon fill="black" stroke="black" points="661.98,-133 671.98,-129.5 661.98,-126 661.98,-133"/>
</g>
<!-- 4830996960 -->
<g id="node26" class="node">
<title>4830996960</title>
<polygon fill="none" stroke="black" points="1697.5,-0.5 1697.5,-36.5 1883.5,-36.5 1883.5,-0.5 1697.5,-0.5"/>
<text text-anchor="middle" x="1707.5" y="-14.8" font-family="Times,serif" font-size="14.00"> </text>
<polyline fill="none" stroke="black" points="1717.5,-0.5 1717.5,-36.5 "/>
<text text-anchor="middle" x="1757.5" y="-14.8" font-family="Times,serif" font-size="14.00">data 1.0000</text>
<polyline fill="none" stroke="black" points="1797.5,-0.5 1797.5,-36.5 "/>
<text text-anchor="middle" x="1840.5" y="-14.8" font-family="Times,serif" font-size="14.00">grad &#45;0.1036</text>
</g>
<!-- 4830996960&#45;&gt;4830994368+ -->
<g id="edge13" class="edge">
<title>4830996960&#45;&gt;4830994368+</title>
<path fill="none" stroke="black" d="M1883.6,-34.6C1893.15,-36.26 1902.37,-37.88 1910.68,-39.33"/>
<polygon fill="black" stroke="black" points="1910.2,-42.8 1920.65,-41.07 1911.4,-35.9 1910.2,-42.8"/>
</g>
<!-- 4830992880 -->
<g id="node27" class="node">
<title>4830992880</title>
<polygon fill="none" stroke="black" points="1389,-55.5 1389,-91.5 1571,-91.5 1571,-55.5 1389,-55.5"/>
<text text-anchor="middle" x="1399" y="-69.8" font-family="Times,serif" font-size="14.00"> </text>
<polyline fill="none" stroke="black" points="1409,-55.5 1409,-91.5 "/>
<text text-anchor="middle" x="1449" y="-69.8" font-family="Times,serif" font-size="14.00">data 1.7627</text>
<polyline fill="none" stroke="black" points="1489,-55.5 1489,-91.5 "/>
<text text-anchor="middle" x="1530" y="-69.8" font-family="Times,serif" font-size="14.00">grad 0.2500</text>
</g>
<!-- 4830992880&#45;&gt;4830999408exp -->
<g id="edge21" class="edge">
<title>4830992880&#45;&gt;4830999408exp</title>
<path fill="none" stroke="black" d="M1571.18,-73.5C1580.14,-73.5 1588.83,-73.5 1596.73,-73.5"/>
<polygon fill="black" stroke="black" points="1596.96,-77 1606.96,-73.5 1596.96,-70 1596.96,-77"/>
</g>
<!-- 4830992880*&#45;&gt;4830992880 -->
<g id="edge10" class="edge">
<title>4830992880*&#45;&gt;4830992880</title>
<path fill="none" stroke="black" d="M1353.13,-73.5C1360.67,-73.5 1369.39,-73.5 1378.64,-73.5"/>
<polygon fill="black" stroke="black" points="1378.87,-77 1388.87,-73.5 1378.87,-70 1378.87,-77"/>
</g>
</g>
</svg>
