<?xml version="1.0" encoding="UTF-8" standalone="no"?>
<!DOCTYPE svg PUBLIC "-//W3C//DTD SVG 1.1//EN"
 "http://www.w3.org/Graphics/SVG/1.1/DTD/svg11.dtd">
<!-- Generated by graphviz version 9.0.0 (0)
 -->
<!-- Pages: 1 -->
<svg width="337pt" height="471pt"
 viewBox="0.00 0.00 337.00 471.00" xmlns="http://www.w3.org/2000/svg" xmlns:xlink="http://www.w3.org/1999/xlink">
<g id="graph0" class="graph" transform="scale(1 1) rotate(0) translate(4 467)">
<polygon fill="white" stroke="none" points="-4,4 -4,-467 333,-467 333,4 -4,4"/>
<!-- 4398370640 -->
<g id="node1" class="node">
<title>4398370640</title>
<polygon fill="#caff70" stroke="black" points="192,-31.25 138,-31.25 138,0 192,0 192,-31.25"/>
<text text-anchor="middle" x="165" y="-5.75" font-family="monospace" font-size="10.00"> ()</text>
</g>
<!-- 13434346208 -->
<g id="node2" class="node">
<title>13434346208</title>
<polygon fill="lightgrey" stroke="black" points="212,-86.5 118,-86.5 118,-67.25 212,-67.25 212,-86.5"/>
<text text-anchor="middle" x="165" y="-73" font-family="monospace" font-size="10.00">MeanBackward0</text>
</g>
<!-- 13434346208&#45;&gt;4398370640 -->
<g id="edge14" class="edge">
<title>13434346208&#45;&gt;4398370640</title>
<path fill="none" stroke="black" d="M165,-66.88C165,-60.54 165,-51.7 165,-43.2"/>
<polygon fill="black" stroke="black" points="168.5,-43.22 165,-33.22 161.5,-43.22 168.5,-43.22"/>
</g>
<!-- 13443900336 -->
<g id="node3" class="node">
<title>13443900336</title>
<polygon fill="lightgrey" stroke="black" points="215,-141.75 115,-141.75 115,-122.5 215,-122.5 215,-141.75"/>
<text text-anchor="middle" x="165" y="-128.25" font-family="monospace" font-size="10.00">AddmmBackward0</text>
</g>
<!-- 13443900336&#45;&gt;13434346208 -->
<g id="edge1" class="edge">
<title>13443900336&#45;&gt;13434346208</title>
<path fill="none" stroke="black" d="M165,-122.33C165,-115.82 165,-106.67 165,-98.37"/>
<polygon fill="black" stroke="black" points="168.5,-98.37 165,-88.37 161.5,-98.37 168.5,-98.37"/>
</g>
<!-- 13434164352 -->
<g id="node4" class="node">
<title>13434164352</title>
<polygon fill="lightgrey" stroke="black" points="100,-197 0,-197 0,-177.75 100,-177.75 100,-197"/>
<text text-anchor="middle" x="50" y="-183.5" font-family="monospace" font-size="10.00">AccumulateGrad</text>
</g>
<!-- 13434164352&#45;&gt;13443900336 -->
<g id="edge2" class="edge">
<title>13434164352&#45;&gt;13443900336</title>
<path fill="none" stroke="black" d="M69.51,-177.34C87.52,-169 114.52,-156.5 135.23,-146.91"/>
<polygon fill="black" stroke="black" points="136.42,-150.22 144.02,-142.84 133.48,-143.86 136.42,-150.22"/>
</g>
<!-- 13443936208 -->
<g id="node5" class="node">
<title>13443936208</title>
<polygon fill="lightblue" stroke="black" points="82,-263.5 18,-263.5 18,-233 82,-233 82,-263.5"/>
<text text-anchor="middle" x="50" y="-250" font-family="monospace" font-size="10.00">fc2.bias</text>
<text text-anchor="middle" x="50" y="-238.75" font-family="monospace" font-size="10.00"> (10)</text>
</g>
<!-- 13443936208&#45;&gt;13434164352 -->
<g id="edge3" class="edge">
<title>13443936208&#45;&gt;13434164352</title>
<path fill="none" stroke="black" d="M50,-232.7C50,-225.46 50,-216.59 50,-208.69"/>
<polygon fill="black" stroke="black" points="53.5,-208.96 50,-198.96 46.5,-208.96 53.5,-208.96"/>
</g>
<!-- 13602971584 -->
<g id="node6" class="node">
<title>13602971584</title>
<polygon fill="lightgrey" stroke="black" points="212,-197 118,-197 118,-177.75 212,-177.75 212,-197"/>
<text text-anchor="middle" x="165" y="-183.5" font-family="monospace" font-size="10.00">ReluBackward0</text>
</g>
<!-- 13602971584&#45;&gt;13443900336 -->
<g id="edge4" class="edge">
<title>13602971584&#45;&gt;13443900336</title>
<path fill="none" stroke="black" d="M165,-177.58C165,-171.07 165,-161.92 165,-153.62"/>
<polygon fill="black" stroke="black" points="168.5,-153.62 165,-143.62 161.5,-153.62 168.5,-153.62"/>
</g>
<!-- 13602971824 -->
<g id="node7" class="node">
<title>13602971824</title>
<polygon fill="lightgrey" stroke="black" points="211,-257.88 111,-257.88 111,-238.62 211,-238.62 211,-257.88"/>
<text text-anchor="middle" x="161" y="-244.38" font-family="monospace" font-size="10.00">AddmmBackward0</text>
</g>
<!-- 13602971824&#45;&gt;13602971584 -->
<g id="edge5" class="edge">
<title>13602971824&#45;&gt;13602971584</title>
<path fill="none" stroke="black" d="M161.61,-238.31C162.14,-230.44 162.94,-218.7 163.63,-208.57"/>
<polygon fill="black" stroke="black" points="167.1,-209.13 164.28,-198.91 160.11,-208.65 167.1,-209.13"/>
</g>
<!-- 13602974752 -->
<g id="node8" class="node">
<title>13602974752</title>
<polygon fill="lightgrey" stroke="black" points="117,-324.38 17,-324.38 17,-305.12 117,-305.12 117,-324.38"/>
<text text-anchor="middle" x="67" y="-310.88" font-family="monospace" font-size="10.00">AccumulateGrad</text>
</g>
<!-- 13602974752&#45;&gt;13602971824 -->
<g id="edge6" class="edge">
<title>13602974752&#45;&gt;13602971824</title>
<path fill="none" stroke="black" d="M80.07,-304.78C95.14,-294.44 120.17,-277.27 138.41,-264.75"/>
<polygon fill="black" stroke="black" points="140.22,-267.75 146.49,-259.21 136.26,-261.98 140.22,-267.75"/>
</g>
<!-- 13444518672 -->
<g id="node9" class="node">
<title>13444518672</title>
<polygon fill="lightblue" stroke="black" points="99,-396.5 35,-396.5 35,-366 99,-366 99,-396.5"/>
<text text-anchor="middle" x="67" y="-383" font-family="monospace" font-size="10.00">fc1.bias</text>
<text text-anchor="middle" x="67" y="-371.75" font-family="monospace" font-size="10.00"> (128)</text>
</g>
<!-- 13444518672&#45;&gt;13602974752 -->
<g id="edge7" class="edge">
<title>13444518672&#45;&gt;13602974752</title>
<path fill="none" stroke="black" d="M67,-365.61C67,-356.83 67,-345.52 67,-335.9"/>
<polygon fill="black" stroke="black" points="70.5,-336.09 67,-326.09 63.5,-336.09 70.5,-336.09"/>
</g>
<!-- 13602965968 -->
<g id="node10" class="node">
<title>13602965968</title>
<polygon fill="lightgrey" stroke="black" points="211,-324.38 135,-324.38 135,-305.12 211,-305.12 211,-324.38"/>
<text text-anchor="middle" x="173" y="-310.88" font-family="monospace" font-size="10.00">TBackward0</text>
</g>
<!-- 13602965968&#45;&gt;13602971824 -->
<g id="edge8" class="edge">
<title>13602965968&#45;&gt;13602971824</title>
<path fill="none" stroke="black" d="M171.33,-304.78C169.63,-295.64 166.93,-281.14 164.72,-269.25"/>
<polygon fill="black" stroke="black" points="168.2,-268.82 162.93,-259.63 161.32,-270.1 168.2,-268.82"/>
</g>
<!-- 13434351920 -->
<g id="node11" class="node">
<title>13434351920</title>
<polygon fill="lightgrey" stroke="black" points="223,-390.88 123,-390.88 123,-371.62 223,-371.62 223,-390.88"/>
<text text-anchor="middle" x="173" y="-377.38" font-family="monospace" font-size="10.00">AccumulateGrad</text>
</g>
<!-- 13434351920&#45;&gt;13602965968 -->
<g id="edge9" class="edge">
<title>13434351920&#45;&gt;13602965968</title>
<path fill="none" stroke="black" d="M173,-371.28C173,-362.23 173,-347.95 173,-336.13"/>
<polygon fill="black" stroke="black" points="176.5,-336.16 173,-326.16 169.5,-336.16 176.5,-336.16"/>
</g>
<!-- 13444521872 -->
<g id="node12" class="node">
<title>13444521872</title>
<polygon fill="lightblue" stroke="black" points="214,-463 132,-463 132,-432.5 214,-432.5 214,-463"/>
<text text-anchor="middle" x="173" y="-449.5" font-family="monospace" font-size="10.00">fc1.weight</text>
<text text-anchor="middle" x="173" y="-438.25" font-family="monospace" font-size="10.00"> (128, 784)</text>
</g>
<!-- 13444521872&#45;&gt;13434351920 -->
<g id="edge10" class="edge">
<title>13444521872&#45;&gt;13434351920</title>
<path fill="none" stroke="black" d="M173,-432.11C173,-423.33 173,-412.02 173,-402.4"/>
<polygon fill="black" stroke="black" points="176.5,-402.59 173,-392.59 169.5,-402.59 176.5,-402.59"/>
</g>
<!-- 13602973312 -->
<g id="node13" class="node">
<title>13602973312</title>
<polygon fill="lightgrey" stroke="black" points="310,-197 234,-197 234,-177.75 310,-177.75 310,-197"/>
<text text-anchor="middle" x="272" y="-183.5" font-family="monospace" font-size="10.00">TBackward0</text>
</g>
<!-- 13602973312&#45;&gt;13443900336 -->
<g id="edge11" class="edge">
<title>13602973312&#45;&gt;13443900336</title>
<path fill="none" stroke="black" d="M253.85,-177.34C237.32,-169.12 212.66,-156.84 193.5,-147.31"/>
<polygon fill="black" stroke="black" points="195.11,-144.2 184.6,-142.88 191.99,-150.47 195.11,-144.2"/>
</g>
<!-- 13603127648 -->
<g id="node14" class="node">
<title>13603127648</title>
<polygon fill="lightgrey" stroke="black" points="329,-257.88 229,-257.88 229,-238.62 329,-238.62 329,-257.88"/>
<text text-anchor="middle" x="279" y="-244.38" font-family="monospace" font-size="10.00">AccumulateGrad</text>
</g>
<!-- 13603127648&#45;&gt;13602973312 -->
<g id="edge12" class="edge">
<title>13603127648&#45;&gt;13602973312</title>
<path fill="none" stroke="black" d="M277.94,-238.31C277,-230.44 275.61,-218.7 274.4,-208.57"/>
<polygon fill="black" stroke="black" points="277.91,-208.42 273.25,-198.9 270.96,-209.25 277.91,-208.42"/>
</g>
<!-- 6058514448 -->
<g id="node15" class="node">
<title>6058514448</title>
<polygon fill="lightblue" stroke="black" points="317,-330 241,-330 241,-299.5 317,-299.5 317,-330"/>
<text text-anchor="middle" x="279" y="-316.5" font-family="monospace" font-size="10.00">fc2.weight</text>
<text text-anchor="middle" x="279" y="-305.25" font-family="monospace" font-size="10.00"> (10, 128)</text>
</g>
<!-- 6058514448&#45;&gt;13603127648 -->
<g id="edge13" class="edge">
<title>6058514448&#45;&gt;13603127648</title>
<path fill="none" stroke="black" d="M279,-299.11C279,-290.33 279,-279.02 279,-269.4"/>
<polygon fill="black" stroke="black" points="282.5,-269.59 279,-259.59 275.5,-269.59 282.5,-269.59"/>
</g>
</g>
</svg>
